# xmcd
#
# Track frame offsets: 
#        150
#        35615
#        69205
#        100497
#        144762
#        183667
#        215047
#        227672
#
# Disc length: 3384 seconds
#
# Revision: 1
# Processed by: cddbd v1.5.1PL0 Copyright (c) Steve Scherf et al.
# Submitted via: ExactAudioCopy v0.95a3
#
DISCID=6f0d3608
DTITLE=James Asher and Arthur Hull - Sounding The Stones
DYEAR=2003
DGENRE=New Age
TTITLE0=Kalimba Dream
TTITLE1=Madagascan Green
TTITLE2=Artherial
TTITLE3=Neptune Dub
TTITLE4=Moorish Palaces
TTITLE5=Panorama Express
TTITLE6=Mothership
TTITLE7=Going For Gumbo
EXTD=YEAR: 2003
EXTT0=
EXTT1=
EXTT2=
EXTT3=
EXTT4=
EXTT5=
EXTT6=
EXTT7=
PLAYORDER=
